<svg width="349" height="88" viewBox="0 0 349 88" fill="none" xmlns="http://www.w3.org/2000/svg">
<g clip-path="url(#clip0_9_9)">
<path d="M91.4975 12.3239C92.9531 12.3239 94.1667 12.3239 95.6222 12.1431C97.3208 11.9623 99.0193 11.6006 100.718 11.6006C102.416 11.6006 104.115 11.0582 105.814 10.6966C109.696 9.79249 113.578 8.88844 117.461 7.98434C119.644 7.44191 122.071 7.08029 124.254 7.2611C127.166 7.44191 130.078 7.08029 132.747 6.53786C133.96 6.35705 135.416 5.99543 136.629 5.81462C139.299 5.45297 141.482 4.91052 143.181 3.46401C143.423 3.28319 143.909 3.28319 144.151 3.10238C144.637 2.92157 145.607 3.10238 146.092 3.64482C146.82 4.91052 147.063 4.91052 148.033 4.72971C149.247 4.36808 150.217 4.18726 151.188 3.82564C152.159 3.46401 153.372 3.82564 154.342 3.10238C153.372 2.19831 151.673 3.28319 150.702 2.19831C155.07 1.83668 159.195 0.751799 164.291 1.47505C163.563 1.65587 163.077 1.83668 162.592 1.83668C162.107 1.83668 161.379 1.83668 161.379 2.37913C161.621 2.37913 161.621 2.55994 161.864 2.55994C167.93 2.37913 173.754 2.37913 179.82 1.47505C181.276 1.29424 182.974 1.29424 184.43 1.11342C193.165 0.570983 202.386 0.0285423 211.363 0.0285427C214.761 0.0285428 217.915 0.0285429 221.312 0.0285431C228.106 -0.152271 234.9 0.570983 241.694 0.932614C245.091 1.11343 248.488 1.65587 251.885 2.19832C252.37 2.19832 252.856 2.55994 253.341 2.74076C248.003 2.92157 242.907 2.92157 237.812 2.37913C236.841 2.19831 235.87 2.19831 234.9 2.37913C230.775 2.92157 226.408 2.55994 222.282 2.74076C217.43 2.92157 212.577 2.37913 207.724 2.74075C203.114 3.10238 198.503 2.92157 193.893 2.92157C192.68 2.92157 191.467 2.92157 190.496 3.10238C186.128 3.64482 181.518 3.64482 177.151 3.82564C173.996 3.82564 171.085 4.18726 167.93 4.36808C162.107 4.91052 156.526 5.63375 150.702 6.17624C147.548 6.53786 144.151 6.89948 140.997 7.2611C140.512 7.2611 140.026 7.62272 139.541 7.80353C136.629 7.80353 133.717 7.98434 130.806 8.52682C129.593 8.70763 128.137 8.70763 126.681 8.88844C125.71 9.06925 124.74 9.06925 123.769 9.25006C122.556 9.43087 122.556 9.79249 123.769 10.6966C123.769 10.8774 124.012 10.8774 124.012 11.0582C124.012 11.239 123.769 11.4198 123.769 11.4198C123.284 11.4198 122.556 11.6006 122.071 11.4198C121.1 11.239 120.129 11.4198 119.159 11.7815C117.218 12.5047 115.519 13.7704 112.85 13.5896C110.909 13.4088 108.725 14.4937 106.541 14.3128C105.086 14.132 104.6 15.0361 103.63 15.5786C103.145 15.7594 102.416 16.121 101.931 15.7594C100.718 14.8553 99.5049 15.0361 98.0488 15.3978C95.6222 16.121 92.9531 16.8442 90.0415 16.4826C88.5859 16.3018 87.3724 16.6634 86.1593 17.2059C84.7032 17.7483 83.2477 18.11 81.7916 18.2908C79.8506 18.6524 77.667 19.014 75.9684 20.0989C75.2404 20.6414 73.7843 20.8222 72.8137 21.003C67.233 21.5454 61.8948 23.3536 56.7996 24.8001C51.2186 26.4274 45.8804 28.4164 40.5422 30.5861C34.4761 32.9367 28.8953 35.6489 23.3145 38.7227C22.5865 39.0844 21.8587 39.6268 20.8881 39.9885C18.4616 41.0733 16.7631 42.7007 14.822 43.9664C12.3955 45.5937 10.697 47.4018 8.75586 49.21C7.05734 51.0181 6.08675 53.007 5.84414 55.1771C5.84414 56.6234 5.35885 58.0696 5.84414 59.5164C6.57207 62.2286 8.27054 64.7598 10.9396 66.7488C14.094 69.2806 17.491 71.6309 21.8586 73.0777C24.7703 74.8858 28.1674 75.6089 31.807 76.3321C36.9026 77.2361 41.7554 78.502 46.8509 79.587C50.248 80.3101 53.645 80.6714 57.0421 81.0332C62.3803 81.5755 67.7186 82.1182 73.2993 82.2991C78.3945 82.4801 83.2477 82.6604 88.3429 83.0223C96.5927 83.5645 105.086 83.3841 113.335 82.8413C114.306 82.8413 115.277 82.6604 116.247 82.6604C128.38 82.6604 140.269 81.7564 152.159 80.8523C159.195 80.491 165.989 80.3101 173.026 79.7674C178.607 79.4061 184.187 79.2251 189.768 78.502C196.805 77.598 204.084 77.0552 211.121 76.3321C215.003 75.9702 218.886 75.6089 222.768 75.2471C223.739 75.0662 224.709 75.0662 225.68 74.8858C234.9 73.6199 244.363 72.354 253.584 70.9078C255.039 70.7269 256.738 70.5459 258.194 70.1847C260.378 69.8228 262.562 69.2806 264.988 69.2806C266.201 69.2806 267.657 68.9188 268.87 68.7378C274.209 67.6529 279.789 66.5679 285.128 65.4835C295.803 63.1326 306.48 61.1436 316.428 57.5274C320.796 56.6234 324.436 54.8153 328.318 53.1879C332.686 51.3798 336.325 48.6676 339.722 45.7745C341.178 44.328 341.906 42.7007 342.149 40.8926C342.634 38.542 341.421 36.3722 340.45 34.2024C340.207 33.8408 339.965 33.4791 339.48 33.1175C335.112 29.6821 333.171 28.4164 327.59 25.5233C326.377 24.9809 325.406 24.4385 324.193 23.896C322.737 23.1728 321.282 22.6303 319.583 21.9071C318.855 21.5454 318.127 21.1838 317.399 21.1838C314.73 20.8222 312.304 19.9181 309.877 18.8332C308.178 18.11 306.237 17.5675 304.296 18.11C302.84 18.4716 301.627 17.7483 300.414 17.3867C299.929 17.2059 299.443 16.8442 298.958 16.8442C295.561 16.4826 292.164 15.5786 288.767 15.3978C288.524 15.3978 288.282 15.217 288.282 15.217C288.039 14.8553 288.282 14.6745 288.767 14.6745C289.98 14.4937 290.223 14.4937 290.708 14.3128C290.708 14.3128 290.951 14.132 290.951 13.9512C290.951 13.7704 290.708 13.5896 290.708 13.5896C289.98 13.4088 289.252 13.228 288.524 13.228C287.069 13.228 285.37 13.4088 283.914 13.5896C281.002 13.9512 278.576 13.5896 276.635 11.9623C274.209 11.6006 271.782 11.4198 269.598 11.0582C267.9 10.6966 266.444 10.8774 264.745 10.8774C263.532 10.8774 262.562 10.335 261.834 9.79249C261.591 9.43087 261.591 9.06925 261.591 8.88844C261.834 8.70763 262.076 8.34601 262.319 8.34601C264.745 8.1652 267.414 8.52682 269.841 8.88844C273.723 9.43087 277.363 10.1541 281.245 10.335C281.73 10.335 281.973 10.335 282.458 10.5158C288.039 11.4198 293.377 12.5047 298.958 13.4088C301.385 13.9512 303.811 14.3128 306.237 15.0361C311.09 16.3018 315.7 17.3867 320.554 18.8332C324.193 19.9181 327.59 21.1838 330.744 22.9919C331.472 23.3536 332.201 23.896 333.171 24.2577C337.053 25.885 340.207 28.4164 343.362 30.7669C344.575 31.671 345.303 32.5751 345.789 33.66C346.516 35.2873 347.244 36.9146 348.458 38.542C349.428 41.435 349.185 44.328 347.002 46.8594C344.333 49.7524 341.421 52.4647 337.781 54.4536C334.384 56.2615 330.987 57.7083 327.59 59.3355C326.862 59.6973 326.134 59.8783 325.406 59.8783C323.465 60.0586 321.767 60.9627 320.311 61.8667C319.34 62.4095 318.369 62.5904 317.156 62.9517C312.304 64.2176 307.45 65.3026 302.84 66.9297C301.87 67.2916 300.899 67.472 300.171 67.472C297.502 67.6529 294.833 67.8338 292.407 68.9188C292.164 68.9188 291.921 69.0997 291.921 69.0997C287.069 69.2806 282.943 70.7269 278.576 72.1731C276.392 72.8968 274.209 73.2581 271.782 73.2581C270.326 73.2581 269.113 73.439 267.657 73.439C265.958 73.439 264.503 73.6199 263.047 74.1621C262.076 74.524 261.348 74.7049 260.378 74.8858C257.951 75.2471 255.525 75.428 252.856 75.7899C250.429 76.8743 247.76 76.8743 245.091 77.417C242.665 77.7789 240.238 78.1402 237.569 78.502C236.599 78.6829 235.628 78.6829 234.657 78.6829C232.716 78.6829 230.775 79.0442 229.077 79.7674C228.106 80.1292 226.893 80.3101 225.68 80.3101C223.496 80.3101 221.554 80.491 219.371 80.8523C215.731 81.5755 212.092 81.9373 208.452 81.9373C204.812 81.9373 201.173 82.2991 197.533 83.0223C194.864 83.5645 192.195 83.7454 189.526 83.7454C186.614 83.9263 183.702 84.1072 180.79 84.2882C175.695 84.6494 170.357 85.3726 165.261 85.0113C164.291 85.0113 163.32 85.1922 162.349 85.1922C157.982 85.7344 153.614 86.0963 149.004 86.0963C145.364 86.0963 141.725 86.2766 138.085 86.8194C136.872 87.0003 135.416 87.0003 133.96 87.0003C129.593 87.1812 125.467 87.3616 121.1 87.5425C110.666 87.9043 100.232 88.2656 89.799 87.7234C84.2182 87.5425 78.6375 87.1812 73.0562 86.8194C69.9021 86.6385 66.7475 86.8194 63.8359 86.2766C63.3509 86.0963 62.6228 86.2766 62.1373 86.0963C59.4682 85.1922 57.0421 85.1922 54.1303 85.5535C51.9464 85.7344 49.52 85.5535 47.3362 84.6494C47.0936 84.4685 46.6083 84.2882 46.3657 84.2882C46.123 84.1072 45.6377 84.1072 45.1525 84.1072C42.2407 84.1072 39.5716 82.8413 36.6599 82.6604C33.9908 82.6604 31.807 81.9373 29.6232 81.0332C27.682 80.3101 25.7409 79.587 23.7998 79.2251C21.8587 78.8633 20.1601 78.1402 18.4616 77.598C18.219 77.417 17.7337 77.4171 17.491 77.2361C13.366 74.7049 8.99852 72.7159 5.84414 69.461C0.748609 64.2176 -1.43519 58.2505 0.99126 51.9222C1.23391 51.199 1.71917 50.6565 2.20446 49.9332C2.44711 49.3908 2.93241 48.8484 3.90296 48.8484C5.84414 48.4867 7.29995 47.5826 8.5132 46.317C8.5132 45.9554 8.27054 45.9554 7.78527 46.1362C7.29995 46.317 6.81468 46.4978 6.08675 46.4978C6.08675 45.5937 6.81473 44.8704 7.54266 44.1472C10.4544 41.435 13.8514 39.2652 17.2484 36.9146C18.7043 36.0105 20.4027 35.2873 22.3439 35.1065C22.3439 35.6489 22.5865 36.3722 22.5865 36.9146C20.8881 36.9146 19.6749 37.4571 18.9469 38.5419C16.2778 39.2652 16.2778 39.2652 15.5499 40.8925C17.0058 40.3501 17.9763 39.6268 18.7043 38.5419C20.1601 38.3611 21.3733 37.6379 22.3439 36.9146C26.4688 34.9257 30.5938 32.7559 34.7188 30.7669C34.9614 30.7669 34.9614 30.5861 34.9614 30.4053C34.9614 30.0437 34.7188 29.8629 34.2335 30.0437C33.0203 30.4053 31.807 30.9477 30.3512 30.7669C31.0791 30.2245 31.5644 29.6821 32.2923 29.3204C33.7482 28.4164 35.4467 27.6931 37.6305 28.0547C39.0863 28.2355 40.2996 27.6931 41.0275 26.789C41.7554 25.885 42.726 25.3425 43.9392 24.8001C47.5789 23.1728 51.4612 21.907 55.3435 20.8222C57.5271 20.2797 59.7112 19.9181 62.1373 19.7373C63.5934 19.7373 65.292 19.5564 66.505 18.6524C68.2036 18.6524 69.9021 18.6524 71.3582 17.7483H71.1152C75.7254 17.0251 80.3361 16.4826 84.4607 15.2169C85.9168 14.6745 87.8579 14.4937 89.5565 14.3128C90.2845 13.7704 91.255 13.0472 91.4975 12.3239Z" fill="#5727BD"/>
<path d="M139.541 7.98433C144.394 8.34601 149.247 7.80352 154.1 7.62271C156.526 7.4419 158.71 7.26109 161.136 7.08028C163.32 6.89947 165.261 6.71866 167.445 6.53785C169.629 6.35704 171.813 5.99542 173.754 6.35704C175.937 6.71866 177.879 6.71866 180.063 6.35704C180.79 6.17623 181.518 6.35704 182.489 6.17623C185.643 5.63375 188.555 5.81461 191.709 6.71866C191.467 6.89947 191.224 7.08028 190.982 7.08028C189.041 7.26109 187.099 7.26109 185.158 7.26109C182.732 7.26109 180.548 7.4419 178.364 7.98433C175.453 8.70763 172.298 8.70763 169.144 8.52682C165.989 8.34601 163.077 8.52682 159.923 9.06925C154.828 9.61168 149.974 9.9733 145.122 9.9733C140.997 9.9733 136.629 10.3349 132.504 10.6966C131.291 10.8774 130.078 11.4198 128.622 11.6006C128.38 11.6006 127.894 11.4198 127.652 11.239V10.8774C127.894 10.3349 128.38 9.79249 129.107 9.79249C130.563 9.79249 132.262 9.79249 133.717 9.79249C136.144 9.61168 138.085 9.06925 139.541 7.98433Z" fill="#5727BD"/>
<path d="M207.239 5.81459C208.452 5.27213 209.908 5.45294 211.121 5.63373C213.548 6.17622 215.974 6.17621 218.643 6.17621C222.04 6.17621 225.68 6.17621 229.077 6.17621C231.018 6.17621 232.959 6.17621 234.9 6.53783C238.297 7.26107 242.179 7.26107 245.819 7.08026C248.488 6.89945 251.157 7.08026 253.826 7.62269C256.01 7.98437 257.708 8.88842 258.679 10.5158C258.679 10.6966 258.679 10.8774 258.679 10.8774C258.436 11.0582 257.951 11.239 257.708 11.239C257.466 11.239 256.981 11.239 256.495 11.0582C253.826 9.61166 250.672 9.25004 247.76 8.5268C246.062 8.16518 244.363 7.98437 242.665 8.5268C241.209 9.06923 239.753 9.06923 238.297 8.5268C237.812 8.34599 237.084 8.16518 236.599 8.16518C233.687 8.5268 230.775 7.8035 227.863 8.34599C226.65 8.5268 225.437 8.5268 224.467 7.98431C223.01 7.26107 221.554 7.26107 220.099 7.44188C218.643 7.8035 217.187 7.62269 215.489 7.44188C213.305 7.08026 211.363 7.08026 209.18 6.89945C208.452 6.71864 207.481 6.53783 207.239 5.81459Z" fill="#5727BD"/>
<path d="M91.74 11.4198C93.1961 10.3349 94.8947 9.79248 96.8358 9.97329C97.3207 9.97329 97.5638 10.1541 97.5638 10.3349C97.5638 10.5157 97.3207 10.5157 97.0783 10.6966C95.3797 11.4198 93.4386 11.6006 91.74 11.4198Z" fill="#5727BD"/>
<path d="M66.02 17.5675C67.233 16.6634 68.6891 16.121 70.6302 15.9402C71.1152 15.9402 71.6007 16.3018 71.3582 16.8442C71.1152 17.025 71.1152 17.3867 70.8727 17.5675H71.1152C69.1741 17.3867 67.4755 17.3867 66.02 17.5675Z" fill="#5727BD"/>
<path d="M198.503 6.8995C198.261 6.71869 197.775 6.71869 197.533 6.53788C197.533 6.53788 197.29 6.17626 197.533 6.17626C197.775 5.81464 198.503 5.81464 198.989 5.81464C199.232 5.81464 199.716 5.99545 199.96 6.17626C200.202 6.17626 200.202 6.53788 200.202 6.53788C200.202 6.71869 199.96 6.71869 199.716 6.71869C199.474 6.8995 198.989 6.8995 198.503 6.8995Z" fill="#5727BD"/>
<path d="M253.341 2.74072C254.554 2.74072 255.767 2.55991 256.981 3.10235C255.767 3.82561 254.554 3.46398 253.341 2.74072Z" fill="#5727BD"/>
<path d="M91.74 12.3239C91.255 12.1431 90.7695 12.1431 90.0414 11.9623C90.7695 11.7815 91.255 11.6006 91.74 11.6006C91.4975 11.7815 91.4975 11.9623 91.74 12.3239Z" fill="#5727BD"/>
<path d="M26.4689 32.2135C26.2262 32.3943 25.9836 32.5751 25.7409 32.7559L25.4983 32.5751C25.7409 32.3943 26.2262 32.3943 26.4689 32.2135Z" fill="#5727BD"/>
<path d="M112.85 7.6227H112.365L112.607 7.44189L112.85 7.6227Z" fill="#5727BD"/>
</g>
<defs>
<clipPath id="clip0_9_9">
<rect width="349" height="88" fill="white"/>
</clipPath>
</defs>
</svg>
